<svg xmlns="http://www.w3.org/2000/svg" viewBox="0 0 75.8437 62.6445" role="img">
  <path fill="#000" d="M 58.2812 55.5820 L 58.8749 45.5508 L 58.8749 3.8008 C 58.8749 2.1758 57.7187 1.0196 56.0937 1.0196 C 54.4687 1.0196 53.2812 2.1758 53.2812 3.8008 L 53.2812 45.5508 L 53.9687 55.5820 C 54.0937 56.9883 55.0937 57.7383 56.1249 57.7383 C 57.1874 57.7383 58.1874 56.9883 58.2812 55.5820 Z M 42.0625 40.2383 C 41.5312 39.7070 40.9062 39.4258 40.1250 39.4258 C 38.5000 39.4258 37.3437 40.5508 37.3437 42.2070 C 37.3437 42.8945 37.6875 43.7070 38.2500 44.2695 L 53.9999 60.3633 C 55.1562 61.5820 56.9999 61.6445 58.1874 60.3633 L 73.9374 44.2695 C 74.4999 43.7070 74.8437 42.8945 74.8437 42.2070 C 74.8437 40.5508 73.6874 39.4258 72.0624 39.4258 C 71.2499 39.4258 70.6562 39.7070 70.1249 40.2383 L 63.6249 46.9570 L 56.0937 55.7695 L 48.5625 46.9570 Z M 21.9375 6.7383 C 21.8437 5.3321 20.8125 4.5821 19.7812 4.5821 C 18.7500 4.5821 17.7500 5.3321 17.6250 6.7383 L 16.9375 16.7383 L 16.9375 58.4883 C 16.9375 60.1133 18.0937 61.3008 19.7500 61.3008 C 21.3750 61.3008 22.5312 60.1133 22.5312 58.4883 L 22.5312 16.7383 Z M 5.7187 22.0820 L 12.2187 15.3633 L 19.7500 6.5196 L 27.2500 15.3633 L 33.7812 22.0820 C 34.3125 22.6133 34.9062 22.8633 35.7187 22.8633 C 37.3437 22.8633 38.4687 21.7695 38.4687 20.1133 C 38.4687 19.3946 38.1562 18.5821 37.5937 18.0508 L 21.8437 1.9258 C 20.6250 0.6758 18.8125 0.7071 17.6562 1.9258 L 1.8750 18.0508 C 1.3437 18.5821 1.0000 19.3946 1.0000 20.1133 C 1.0000 21.7695 2.1250 22.8633 3.7500 22.8633 C 4.5625 22.8633 5.1875 22.6133 5.7187 22.0820 Z"/>
</svg>