<svg xmlns="http://www.w3.org/2000/svg" viewBox="0 0 61.0624 60.3124" role="img">
  <path fill="#000" d="M 1.0000 22.0000 C 1.0000 22.7500 1.3125 23.4687 1.9375 24.0625 L 20.3125 42.0937 C 20.8437 42.6562 21.6562 42.9687 22.3125 42.9687 C 24.0000 42.9687 25.0937 41.8437 25.0937 40.2187 C 25.0937 39.4062 24.8125 38.8125 24.3437 38.3125 L 15.3125 29.5312 L 6.5000 22.0000 L 15.3125 14.4375 L 24.3437 5.6562 C 24.8125 5.1562 25.0937 4.5625 25.0937 3.7500 C 25.0937 2.1250 24.0000 1.0000 22.3125 1.0000 C 21.6562 1.0000 20.8437 1.3125 20.3125 1.8750 L 1.9375 19.9062 C 1.3125 20.5000 1.0000 21.2187 1.0000 22.0000 Z M 28.1562 56.5312 C 28.1562 58.0624 29.2812 59.3124 31.0000 59.3124 L 38.2187 59.3124 C 52.1874 59.3124 60.0624 51.3437 60.0624 39.3750 C 60.0624 27.4375 51.9687 19.1875 37.7187 19.1875 L 16.7187 19.1875 L 6.3750 19.6562 C 5.0937 19.7187 4.0625 20.6875 4.0625 22.0000 C 4.0625 23.2812 5.0937 24.2500 6.3750 24.3125 L 16.7187 24.7812 L 38.1875 24.7812 C 48.8437 24.7812 54.4687 30.6562 54.4687 39.0625 C 54.4687 47.5000 48.8437 53.7499 38.1875 53.7499 L 31.0000 53.7499 C 29.2812 53.7499 28.1562 54.9999 28.1562 56.5312 Z"/>
</svg>