<svg xmlns="http://www.w3.org/2000/svg" viewBox="0 0 79.4374 65.7499" role="img">
  <path fill="#000" d="M 75.6249 27.6875 L 61.2812 27.6875 C 59.0624 27.6875 58.4999 29.1875 59.6874 30.9062 L 66.6874 40.8750 C 67.6874 42.3125 69.1874 42.3437 70.2187 40.8750 L 77.2187 30.9375 C 78.4374 29.1875 77.8437 27.6875 75.6249 27.6875 Z M 39.7187 6.3125 C 54.4062 6.3125 66.2812 18.1875 66.2812 32.8750 C 66.2812 34.3125 67.4687 35.5000 68.9687 35.5000 C 70.4062 35.5000 71.5624 34.3437 71.5937 32.9062 C 71.5624 15.2500 57.3124 1.0000 39.7187 1.0000 C 30.3437 1.0000 21.8437 5.0625 16.0000 11.5937 C 14.7187 13.0000 15.1562 14.8437 16.3437 15.6562 C 17.3437 16.4062 18.6875 16.4687 20.0000 15.0625 C 24.8750 9.6562 31.9062 6.3125 39.7187 6.3125 Z M 3.8125 38.0625 L 18.1562 38.0625 C 20.3750 38.0625 20.9375 36.5312 19.7500 34.8437 L 12.7500 24.8437 C 11.7500 23.4375 10.2500 23.4062 9.2187 24.8437 L 2.2187 34.8125 C 1.0000 36.5312 1.5625 38.0625 3.8125 38.0625 Z M 39.7187 59.4374 C 25.0312 59.4374 13.1562 47.5625 13.1562 32.8750 C 13.1562 31.4375 11.9375 30.2187 10.4687 30.2187 C 9.0312 30.2187 7.8750 31.4062 7.8437 32.8437 C 7.8750 50.5000 22.1250 64.7499 39.7187 64.7499 C 49.0937 64.7499 57.5937 60.6874 63.4374 54.1562 C 64.7187 52.7187 64.2812 50.9062 63.0937 50.0625 C 62.0937 49.3437 60.7499 49.2812 59.4374 50.6562 C 54.5624 56.0624 47.5312 59.4374 39.7187 59.4374 Z"/>
</svg>