<svg xmlns="http://www.w3.org/2000/svg" viewBox="0 0 25.8984 25.8984"><path d="M12.9492 25.8984C20.0967 25.8984 25.8984 20.0966 25.8984 12.9492C25.8984 5.8017 20.0967 0 12.9492 0C5.8018 0 0 5.8017 0 12.9492C0 20.0966 5.8018 25.8984 12.9492 25.8984ZM12.9492 23.7402C6.9824 23.7402 2.1582 18.916 2.1582 12.9492C2.1582 6.9824 6.9824 2.1582 12.9492 2.1582C18.916 2.1582 23.7402 6.9824 23.7402 12.9492C23.7402 18.916 18.916 23.7402 12.9492 23.7402ZM6.3096 14.3203H12.9365C13.4316 14.3203 13.8252 13.9394 13.8252 13.4316V4.875C13.8252 4.3799 13.4316 3.999 12.9365 3.999C12.4414 3.999 12.0605 4.3799 12.0605 4.875V12.5556H6.3096C5.8018 12.5556 5.4209 12.9365 5.4209 13.4316C5.4209 13.9394 5.8018 14.3203 6.3096 14.3203Z" fill="black"/></svg>
