<?xml version="1.0" encoding="UTF-8"?>
<!--Generator: Apple Native CoreSVG 341-->
<!DOCTYPE svg PUBLIC "-//W3C//DTD SVG 1.1//EN" "http://www.w3.org/Graphics/SVG/1.1/DTD/svg11.dtd">
<svg version="1.1" xmlns="http://www.w3.org/2000/svg" xmlns:xlink="http://www.w3.org/1999/xlink" viewBox="0 0 639.648 787.842">
 <g>
  <rect height="787.842" opacity="0" width="639.648" x="0" y="0"/>
  <path d="M443.848 28.0762L611.572 197.998C632.812 219.727 639.648 241.211 639.648 274.658L639.648 537.598C639.648 600.586 608.154 632.568 545.654 632.568L487.061 632.568L487.061 589.355L543.457 589.355C578.369 589.355 596.436 570.801 596.436 536.865L596.436 261.963L441.162 261.963C407.227 261.963 390.381 246.094 390.381 211.182L390.381 43.2129L249.023 43.2129C213.867 43.2129 195.801 62.5 195.801 95.9473L195.801 154.297L152.588 154.297L152.588 94.9707C152.588 31.9824 184.57 0 246.826 0L371.338 0C400.635 0 423.34 7.32422 443.848 28.0762ZM429.688 205.322C429.688 217.773 434.814 222.656 447.021 222.656L584.229 222.656L429.688 66.1621Z" fill="black" fill-opacity="0.85"/>
  <path d="M0 691.895C0 755.127 31.4941 786.865 93.9941 786.865L393.066 786.865C455.566 786.865 487.061 754.883 487.061 691.895L487.061 439.941C487.061 403.564 482.666 387.695 459.961 364.746L279.053 181.396C257.568 159.424 239.99 154.297 207.52 154.297L93.9941 154.297C31.9824 154.297 0 186.523 0 249.268ZM43.2129 691.162L43.2129 250.244C43.2129 216.797 61.2793 197.51 96.4355 197.51L207.031 197.51L207.031 384.766C207.031 422.119 225.83 439.941 262.207 439.941L443.848 439.941L443.848 691.162C443.848 725.098 425.781 743.652 390.625 743.652L96.1914 743.652C61.2793 743.652 43.2129 725.098 43.2129 691.162ZM267.09 399.17C253.174 399.17 247.803 393.799 247.803 379.883L247.803 209.229L435.303 399.17Z" fill="black" fill-opacity="0.85"/>
 </g>
</svg>
