<?xml version="1.0" encoding="UTF-8"?>
<!--Generator: Apple Native CoreSVG 341-->
<!DOCTYPE svg
PUBLIC "-//W3C//DTD SVG 1.1//EN"
       "http://www.w3.org/Graphics/SVG/1.1/DTD/svg11.dtd">
<svg version="1.1" xmlns="http://www.w3.org/2000/svg" xmlns:xlink="http://www.w3.org/1999/xlink" viewBox="0 0 610.79 659.443">
 <g>
  <rect height="659.443" opacity="0" width="610.79" x="0" y="0"/>
  <path d="M0 329.599C0 348.652 11.1425 362.568 33.3397 366.577C74.1502 373.115 91.1766 393.291 91.1766 444.375L91.1766 530.478C91.1766 619.214 130.454 659.443 217.988 659.443C223.5 659.443 228.994 658.623 233.178 657.514C246.054 653.594 252.475 644.604 252.475 632.91C252.475 619.995 246.493 612.642 234.487 609.785C231.493 609.121 228.368 608.589 224.843 608.257C172.885 605.02 153.119 582.061 153.119 523.662L153.119 420.942C153.119 366.66 121.532 335.888 70.5072 331.435C68.6517 331.347 68.5638 328.74 70.5072 328.564C121.532 324.155 153.119 293.184 153.119 238.901L153.119 136.069C153.119 77.7144 172.885 55.1119 224.843 51.7183C229.301 51.3863 233.315 50.7662 236.352 49.7457C247.026 46.6012 252.475 39.2477 252.475 27.0213C252.475 15.1024 246.073 6.4892 233.212 2.6367C228.207 1.10839 222.607 0.488281 215.81 0.488281C130.254 0.488281 91.1766 41.1621 91.1766 129.453L91.1766 215.669C91.1766 266.397 74.0184 286.528 33.3397 293.267C11.1425 297.119 0 310.791 0 329.599ZM610.79 329.599C610.79 310.791 599.691 297.119 577.694 293.267C536.771 286.284 519.613 266.397 519.613 215.669L519.613 129.453C519.613 41.1621 480.58 0.488281 394.98 0.488281C388.227 0.488281 382.826 1.10839 377.821 2.6367C364.472 6.4892 358.315 15.1024 358.315 27.0213C358.315 39.2477 364.208 46.3131 374.638 49.7457C377.719 50.8541 381.488 51.3863 385.99 51.7183C437.704 54.1548 457.714 77.7144 457.714 136.069L457.714 238.901C457.714 293.384 489.501 327.685 540.326 328.608C542.47 328.74 542.338 331.347 540.326 331.435C489.501 332.49 457.714 366.46 457.714 420.942L457.714 523.662C457.714 582.061 437.905 604.932 385.99 608.257C382.421 608.589 379.496 609.121 376.503 609.785C364.54 612.417 358.315 619.995 358.315 632.91C358.315 645.005 365.18 654.282 377.812 657.514C381.996 658.623 387.333 659.443 392.802 659.443C480.336 659.443 519.613 619.214 519.613 530.478L519.613 444.375C519.613 393.291 536.639 373.315 577.694 366.577C599.691 362.568 610.79 348.652 610.79 329.599Z" fill="black" fill-opacity="0.85"/>
 </g>
</svg>
