<svg xmlns="http://www.w3.org/2000/svg" viewBox="0 0 21.3535 27.2188"><path d="M3.9355 27.2188H17.418C20.0459 27.2188 21.3535 25.8857 21.3535 23.2451V11.7178C21.3535 10.0801 21.1631 9.3692 20.1474 8.3281L13.1523 1.2061C12.1875.2159 11.3877 0 9.9658 0H3.9355C1.3203 0 0 1.3457 0 3.9864V23.2451C0 25.8984 1.3076 27.2188 3.9355 27.2188ZM4.0244 25.1748C2.7168 25.1748 2.0439 24.4766 2.0439 23.207V4.0244C2.0439 2.7676 2.7168 2.044 4.0371 2.044H9.6865V9.4199C9.6865 11.0196 10.4863 11.8067 12.0732 11.8067H19.3096V23.207C19.3096 24.4766 18.6367 25.1748 17.3164 25.1748ZM12.3017 9.8897C11.7939 9.8897 11.6035 9.6865 11.6035 9.1787V2.4375L18.916 9.8897ZM15.3486 15.3106H5.7129C5.2559 15.3106 4.9131 15.6533 4.9131 16.085C4.9131 16.5293 5.2559 16.8721 5.7129 16.8721H15.3486C15.793 16.8721 16.123 16.5293 16.123 16.085C16.123 15.6533 15.793 15.3106 15.3486 15.3106ZM15.3486 19.7412H5.7129C5.2559 19.7412 4.9131 20.0967 4.9131 20.541C4.9131 20.9727 5.2559 21.3027 5.7129 21.3027H15.3486C15.793 21.3027 16.123 20.9727 16.123 20.541C16.123 20.0967 15.793 19.7412 15.3486 19.7412Z" fill="black"/></svg>
