<svg xmlns="http://www.w3.org/2000/svg" viewBox="0 0 65.9062 80.6249" role="img">
  <path fill="#000" d="M 16.1562 10.8125 L 16.1562 54.2187 C 16.1562 60.7499 19.3750 64.0312 25.8437 64.0312 L 55.2187 64.0312 C 61.6562 64.0312 64.9062 60.7187 64.9062 54.2187 L 64.9062 28.8437 C 64.9062 25.0000 64.1249 22.5625 61.7812 20.1562 L 46.0000 4.1250 C 43.7812 1.8437 41.1562 1.0000 37.8125 1.0000 L 25.8437 1.0000 C 19.4062 1.0000 16.1562 4.3125 16.1562 10.8125 Z M 21.1875 54.1249 L 21.1875 10.9062 C 21.1875 7.8125 22.8437 6.0312 26.0937 6.0312 L 39.9062 6.0312 L 39.9062 22.0625 C 39.9062 25.6875 41.6562 27.4062 45.2500 27.4062 L 59.8749 27.4062 L 59.8749 54.1249 C 59.8749 57.2499 58.1874 58.9999 54.9374 58.9999 L 26.0625 58.9999 C 22.8437 58.9999 21.1875 57.2499 21.1875 54.1249 Z M 44.4375 21.3125 L 44.4375 8.5000 L 58.5624 22.8750 L 45.9687 22.8750 C 44.8750 22.8750 44.4375 22.4062 44.4375 21.3125 Z M 1.0000 69.8124 C 1.0000 76.3437 4.2187 79.6249 10.6875 79.6249 L 40.0625 79.6249 C 46.5312 79.6249 49.7500 76.3124 49.7500 69.8124 L 49.7500 45.4062 C 49.7500 41.4062 49.2812 39.6562 46.7812 37.0937 L 29.5625 19.5625 C 27.1875 17.1250 25.2187 16.5937 21.7187 16.5937 L 10.6875 16.5937 C 4.2500 16.5937 1.0000 19.8750 1.0000 26.4062 Z M 1.0000 69.8124 C 1.0000 76.3437 4.2187 79.6249 10.6875 79.6249 L 40.0625 79.6249 C 46.5312 79.6249 49.7500 76.3124 49.7500 69.8124 L 49.7500 45.4062 C 49.7500 41.4062 49.2812 39.6562 46.7812 37.0937 L 29.5625 19.5625 C 27.1875 17.1250 25.2187 16.5937 21.7187 16.5937 L 10.6875 16.5937 C 4.2500 16.5937 1.0000 19.8750 1.0000 26.4062 Z M 6.0312 69.7187 L 6.0312 26.4687 C 6.0312 23.4062 7.6875 21.6250 10.9375 21.6250 L 21.1875 21.6250 L 21.1875 39.7500 C 21.1875 43.6875 23.1875 45.6562 27.0625 45.6562 L 44.7187 45.6562 L 44.7187 69.7187 C 44.7187 72.8437 43.0312 74.5937 39.8125 74.5937 L 10.9062 74.5937 C 7.6875 74.5937 6.0312 72.8437 6.0312 69.7187 Z M 27.6562 40.9375 C 26.4062 40.9375 25.9062 40.4375 25.9062 39.1875 L 25.9062 22.7812 L 43.7500 40.9375 Z"/>
</svg>