<svg xmlns="http://www.w3.org/2000/svg" viewBox="0 0 60.3124 13.8437" role="img">
  <path fill="#000" d="M 53.3749 12.8437 C 56.6562 12.8437 59.3124 10.2187 59.3124 6.9375 C 59.3124 3.6562 56.6562 1.0000 53.3749 1.0000 C 50.0937 1.0000 47.4375 3.6562 47.4375 6.9375 C 47.4375 10.2187 50.0937 12.8437 53.3749 12.8437 Z M 30.1562 12.8437 C 33.4375 12.8437 36.0625 10.2187 36.0625 6.9375 C 36.0625 3.6562 33.4375 1.0000 30.1562 1.0000 C 26.8750 1.0000 24.2187 3.6562 24.2187 6.9375 C 24.2187 10.2187 26.8750 12.8437 30.1562 12.8437 Z M 6.9375 12.8437 C 10.2187 12.8437 12.8437 10.2187 12.8437 6.9375 C 12.8437 3.6562 10.2187 1.0000 6.9375 1.0000 C 3.6562 1.0000 1.0000 3.6562 1.0000 6.9375 C 1.0000 10.2187 3.6562 12.8437 6.9375 12.8437 Z"/>
</svg>