<svg xmlns="http://www.w3.org/2000/svg" viewBox="0 0 67.4999 61.3749" role="img">
  <path fill="#000" d="M 9.5312 60.3749 L 57.9687 60.3749 C 63.2812 60.3749 66.4999 56.6874 66.4999 51.9062 C 66.4999 50.4375 66.0624 48.9062 65.2812 47.5312 L 41.0312 5.2812 C 39.4062 2.4375 36.6250 1.0000 33.7500 1.0000 C 30.8750 1.0000 28.0625 2.4375 26.4687 5.2812 L 2.2187 47.5312 C 1.3750 48.9375 1.0000 50.4375 1.0000 51.9062 C 1.0000 56.6874 4.2187 60.3749 9.5312 60.3749 Z M 9.5625 55.4687 C 7.3750 55.4687 6.0625 53.7812 6.0625 51.8749 C 6.0625 51.2812 6.1875 50.5312 6.5312 49.8750 L 30.7500 7.6562 C 31.4062 6.5000 32.5937 6.0000 33.7500 6.0000 C 34.9062 6.0000 36.0625 6.5000 36.7187 7.6562 L 60.9374 49.9062 C 61.2812 50.5625 61.4374 51.2812 61.4374 51.8749 C 61.4374 53.7812 60.0624 55.4687 57.9062 55.4687 Z M 33.7500 39.3125 C 35.2500 39.3125 36.1250 38.4375 36.1562 36.8125 L 36.5937 20.3437 C 36.6250 18.7500 35.3750 17.5625 33.7187 17.5625 C 32.0312 17.5625 30.8437 18.7187 30.8750 20.3125 L 31.2812 36.8125 C 31.3125 38.4062 32.1875 39.3125 33.7500 39.3125 Z M 33.7500 49.4687 C 35.5625 49.4687 37.1250 48.0312 37.1250 46.2187 C 37.1250 44.3750 35.5937 42.9687 33.7500 42.9687 C 31.9062 42.9687 30.3750 44.4062 30.3750 46.2187 C 30.3750 48.0000 31.9375 49.4687 33.7500 49.4687 Z"/>
</svg>