<svg xmlns="http://www.w3.org/2000/svg" viewBox="0 0 75.7812 55.3437" role="img">
  <path fill="#000" d="M 1.0000 40.2500 C 1.0000 48.1875 7.1562 54.3437 15.8437 54.3437 L 59.9374 54.3437 C 68.6249 54.3437 74.7812 48.1875 74.7812 40.2500 C 74.7812 37.9062 74.0937 35.8125 73.2812 33.8437 L 62.7499 8.5625 C 60.6874 3.5625 56.4374 1.0000 50.8437 1.0000 L 24.9375 1.0000 C 19.3437 1.0000 15.0937 3.5625 13.0312 8.5625 L 2.4687 33.8437 C 1.6875 35.7812 1.0000 37.9062 1.0000 40.2500 Z M 6.0312 40.2500 C 6.0312 35.0937 9.9375 31.1875 15.8437 31.1875 L 59.9374 31.1875 C 65.8437 31.1875 69.7499 35.0937 69.7499 40.2500 C 69.7499 46.0312 65.8437 49.3125 59.9374 49.3125 L 15.8437 49.3125 C 9.9375 49.3125 6.0312 45.4062 6.0312 40.2500 Z M 11.0937 26.9687 L 17.9062 9.8437 C 19.0937 6.8750 21.6562 5.3750 25.1875 5.3750 L 50.5937 5.3750 C 54.1249 5.3750 56.6874 6.8750 57.8749 9.8437 L 64.6874 26.9687 C 63.2187 26.4375 61.6562 26.1562 59.9374 26.1562 L 15.8437 26.1562 C 14.1250 26.1562 12.5312 26.4375 11.0937 26.9687 Z M 55.9687 40.2500 C 55.9687 42.4375 57.7812 44.1250 59.9062 44.1250 C 61.9999 44.1250 63.7812 42.4062 63.7812 40.2500 C 63.7812 38.1562 61.9999 36.3750 59.9062 36.3750 C 57.7812 36.3750 55.9687 38.1562 55.9687 40.2500 Z"/>
</svg>