<svg xmlns="http://www.w3.org/2000/svg" viewBox="0 0 87.4062 67.6093" role="img">
  <path fill="#000" d="M 43.7187 61.3124 C 68.9687 61.3124 86.4062 40.9062 86.4062 34.5312 C 86.4062 28.1250 68.9374 7.7500 43.7187 7.7500 C 18.8125 7.7500 1.0000 28.1250 1.0000 34.5312 C 1.0000 40.9062 18.7812 61.3124 43.7187 61.3124 Z M 43.7187 56.3749 C 23.1250 56.3749 6.4687 38.9375 6.4687 34.5312 C 6.4687 30.8125 23.1250 12.6875 43.7187 12.6875 C 64.2187 12.6875 80.9374 30.8125 80.9374 34.5312 C 80.9374 38.9375 64.2187 56.3749 43.7187 56.3749 Z M 43.7187 51.9999 C 53.4062 51.9999 61.2499 44.1562 61.2499 34.4687 C 61.2499 24.7812 53.4062 16.9375 43.7187 16.9375 C 34.0312 16.9375 26.1562 24.7812 26.1562 34.4687 C 26.1562 44.1562 34.0312 51.9999 43.7187 51.9999 Z M 43.7187 40.3125 C 40.5000 40.3125 37.9062 37.7187 37.9062 34.5000 C 37.9062 31.2812 40.5000 28.6875 43.7187 28.6875 C 46.9375 28.6875 49.5312 31.2812 49.5312 34.5000 C 49.5312 37.7187 46.9375 40.3125 43.7187 40.3125 Z M 65.1249 64.6249 C 67.7499 67.2499 71.9687 67.3124 74.5937 64.5624 C 77.2499 61.8437 77.1562 57.7812 74.5624 55.1874 L 22.3125 2.9687 C 19.7187 0.3438 15.4375 0.3438 12.8437 2.9687 C 10.2500 5.5312 10.2500 9.8125 12.8437 12.4062 Z M 68.1249 61.5937 C 69.0937 62.5624 70.5624 62.6249 71.5312 61.5937 C 72.5624 60.5624 72.4999 59.1562 71.5312 58.1874 L 19.2812 5.9687 C 18.3437 5.0312 16.8125 5.0312 15.8437 5.9687 C 14.9375 6.8750 14.9375 8.4687 15.8437 9.3750 Z"/>
</svg>