<svg xmlns="http://www.w3.org/2000/svg" viewBox="0 0 87.4062 55.5624" role="img">
  <path fill="#000" d="M 43.7187 54.5624 C 68.9687 54.5624 86.4062 34.1562 86.4062 27.7812 C 86.4062 21.3750 68.9374 1.0000 43.7187 1.0000 C 18.8125 1.0000 1.0000 21.3750 1.0000 27.7812 C 1.0000 34.1562 18.7812 54.5624 43.7187 54.5624 Z M 43.7187 49.6250 C 23.1250 49.6250 6.4687 32.1875 6.4687 27.7812 C 6.4687 24.0625 23.1250 5.9375 43.7187 5.9375 C 64.2187 5.9375 80.9374 24.0625 80.9374 27.7812 C 80.9374 32.1875 64.2187 49.6250 43.7187 49.6250 Z M 43.7187 45.2500 C 53.4062 45.2500 61.2499 37.4062 61.2499 27.7187 C 61.2499 18.0312 53.4062 10.1875 43.7187 10.1875 C 34.0312 10.1875 26.1562 18.0312 26.1562 27.7187 C 26.1562 37.4062 34.0312 45.2500 43.7187 45.2500 Z M 43.7187 33.5625 C 40.5000 33.5625 37.9062 30.9687 37.9062 27.7500 C 37.9062 24.5312 40.5000 21.9375 43.7187 21.9375 C 46.9375 21.9375 49.5312 24.5312 49.5312 27.7500 C 49.5312 30.9687 46.9375 33.5625 43.7187 33.5625 Z"/>
</svg>