<svg xmlns="http://www.w3.org/2000/svg" viewBox="0 0 68.8749 68.8124" role="img">
  <path fill="#000" d="M 31.2812 67.8124 L 37.5937 67.8124 C 40.0000 67.8124 41.8750 66.3437 42.4062 64.0312 L 43.7500 58.1874 L 44.7500 57.8437 L 49.8437 60.9687 C 51.8749 62.2187 54.2187 61.9374 55.9374 60.2187 L 60.3124 55.8749 C 62.0312 54.1562 62.3124 51.7812 61.0624 49.7812 L 57.8749 44.7187 L 58.2499 43.7812 L 64.0937 42.4062 C 66.3749 41.8750 67.8749 39.9687 67.8749 37.5937 L 67.8749 31.4062 C 67.8749 29.0312 66.4062 27.1562 64.0937 26.5937 L 58.3124 25.1875 L 57.9062 24.1875 L 61.0937 19.1250 C 62.3437 17.1250 62.0937 14.7812 60.3437 13.0312 L 55.9687 8.6562 C 54.2812 6.9687 51.9374 6.6562 49.9062 7.9062 L 44.8125 11.0312 L 43.7500 10.6250 L 42.4062 4.7812 C 41.8750 2.4687 40.0000 1.0000 37.5937 1.0000 L 31.2812 1.0000 C 28.8750 1.0000 27.0000 2.4687 26.4687 4.7812 L 25.0937 10.6250 L 24.0312 11.0312 L 18.9687 7.9062 C 16.9375 6.6562 14.5625 6.9687 12.8750 8.6562 L 8.5312 13.0312 C 6.7812 14.7812 6.5000 17.1250 7.7812 19.1250 L 10.9375 24.1875 L 10.5625 25.1875 L 4.7812 26.5937 C 2.4687 27.1562 1.0000 29.0312 1.0000 31.4062 L 1.0000 37.5937 C 1.0000 39.9687 2.5000 41.8750 4.7812 42.4062 L 10.6250 43.7812 L 10.9687 44.7187 L 7.8125 49.7812 C 6.5312 51.7812 6.8437 54.1562 8.5625 55.8749 L 12.9062 60.2187 C 14.6250 61.9374 17.0000 62.2187 19.0312 60.9687 L 24.0937 57.8437 L 25.0937 58.1874 L 26.4687 64.0312 C 27.0000 66.3437 28.8750 67.8124 31.2812 67.8124 Z M 31.7812 62.9374 C 31.2500 62.9374 30.9687 62.7187 30.8750 62.2187 L 29.0000 54.4687 C 27.0937 53.9999 25.3125 53.2499 23.9687 52.4062 L 17.1562 56.5937 C 16.7812 56.8749 16.3437 56.8437 16.0000 56.4374 L 12.3125 52.7499 C 11.9687 52.4062 11.9375 52.0312 12.1875 51.5937 L 16.3750 44.8437 C 15.6562 43.5312 14.8437 41.7500 14.3437 39.8437 L 6.5937 38.0000 C 6.0937 37.9062 5.8750 37.6250 5.8750 37.0937 L 5.8750 31.8750 C 5.8750 31.3125 6.0625 31.0625 6.5937 30.9687 L 14.3125 29.0937 C 14.8125 27.0625 15.7500 25.2187 16.3125 24.0625 L 12.1562 17.3125 C 11.8750 16.8437 11.9062 16.4687 12.2500 16.0937 L 15.9687 12.4687 C 16.3437 12.0937 16.6875 12.0625 17.1562 12.3125 L 23.9062 16.4062 C 25.2500 15.6562 27.1562 14.8750 29.0312 14.3437 L 30.8750 6.5937 C 30.9687 6.0937 31.2500 5.8750 31.7812 5.8750 L 37.0937 5.8750 C 37.6250 5.8750 37.9062 6.0937 37.9687 6.5937 L 39.8750 14.4062 C 41.8125 14.9062 43.5000 15.6875 44.9062 16.4375 L 51.6875 12.3125 C 52.1874 12.0625 52.4999 12.0937 52.9062 12.4687 L 56.5937 16.0937 C 56.9687 16.4687 56.9687 16.8437 56.6874 17.3125 L 52.5312 24.0625 C 53.1249 25.2187 54.0312 27.0625 54.5312 29.0937 L 62.2812 30.9687 C 62.7812 31.0625 62.9999 31.3125 62.9999 31.8750 L 62.9999 37.0937 C 62.9999 37.6250 62.7499 37.9062 62.2812 38.0000 L 54.4999 39.8437 C 53.9999 41.7500 53.2187 43.5312 52.4687 44.8437 L 56.6562 51.5937 C 56.9062 52.0312 56.9062 52.4062 56.5312 52.7499 L 52.8749 56.4374 C 52.4999 56.8437 52.0937 56.8749 51.6875 56.5937 L 44.8750 52.4062 C 43.5312 53.2499 41.7812 53.9999 39.8750 54.4687 L 37.9687 62.2187 C 37.9062 62.7187 37.6250 62.9374 37.0937 62.9374 Z M 34.4375 46.3125 C 41.0312 46.3125 46.3437 41.0000 46.3437 34.4062 C 46.3437 27.8125 41.0312 22.5000 34.4375 22.5000 C 27.8437 22.5000 22.5312 27.8125 22.5312 34.4062 C 22.5312 41.0000 27.8437 46.3125 34.4375 46.3125 Z M 34.4375 41.4687 C 30.5312 41.4687 27.3750 38.3125 27.3750 34.4062 C 27.3750 30.5000 30.5312 27.3437 34.4375 27.3437 C 38.3437 27.3437 41.5000 30.5000 41.5000 34.4062 C 41.5000 38.3125 38.3437 41.4687 34.4375 41.4687 Z"/>
</svg>