<?xml version="1.0" encoding="UTF-8"?>
<!--Generator: Apple Native CoreSVG 341-->
<!DOCTYPE svg
PUBLIC "-//W3C//DTD SVG 1.1//EN"
       "http://www.w3.org/Graphics/SVG/1.1/DTD/svg11.dtd">
<svg version="1.1" xmlns="http://www.w3.org/2000/svg" xmlns:xlink="http://www.w3.org/1999/xlink" viewBox="0 0 644.028 644.472">
 <g>
  <rect height="644.472" opacity="0" width="644.028" x="0" y="0"/>
  <path d="M321.914 644.028C499.692 644.028 644.028 499.848 644.028 322.114C644.028 144.336 499.692 0 321.914 0C144.136 0 0 144.336 0 322.114C0 499.848 144.136 644.028 321.914 644.028ZM321.914 588.379C174.707 588.379 55.649 469.321 55.649 322.114C55.649 174.907 174.707 55.8053 321.914 55.8053C469.121 55.8053 588.179 174.907 588.179 322.114C588.179 469.321 469.121 588.379 321.914 588.379Z" fill="black" fill-opacity="0.85"/>
  <path d="M266.181 494.853L393.657 494.853C406.074 494.853 415.83 485.762 415.83 473.369C415.83 461.484 406.074 452.017 393.657 452.017L354.687 452.017L354.687 292.876C354.687 276.782 346.484 265.918 331.098 265.918L271.128 265.918C258.667 265.918 248.911 275.229 248.911 287.114C248.911 299.506 258.667 308.554 271.128 308.554L306.953 308.554L306.953 452.017L266.181 452.017C253.765 452.017 244.209 461.484 244.209 473.369C244.209 485.762 253.765 494.853 266.181 494.853ZM320.244 213.813C342.138 213.813 359.262 196.201 359.262 174.839C359.262 152.856 342.138 135.332 320.244 135.332C298.681 135.332 281.225 152.856 281.225 174.839C281.225 196.201 298.681 213.813 320.244 213.813Z" fill="black" fill-opacity="0.85"/>
 </g>
</svg>
