<svg xmlns="http://www.w3.org/2000/svg" viewBox="0 0 65.2187 34.0000" role="img">
  <path fill="#000" d="M 3.3437 33.0000 L 61.8437 33.0000 C 63.1562 33.0000 64.2187 31.9375 64.2187 30.5937 C 64.2187 29.2812 63.1562 28.2500 61.8437 28.2500 L 3.3437 28.2500 C 2.0312 28.2500 1.0000 29.2812 1.0000 30.5937 C 1.0000 31.9375 2.0312 33.0000 3.3437 33.0000 Z M 3.3437 19.3437 L 61.8437 19.3437 C 63.1562 19.3437 64.2187 18.3125 64.2187 17.0000 C 64.2187 15.6562 63.1562 14.5937 61.8437 14.5937 L 3.3437 14.5937 C 2.0312 14.5937 1.0000 15.6562 1.0000 17.0000 C 1.0000 18.3125 2.0312 19.3437 3.3437 19.3437 Z M 3.3437 5.7187 L 61.8437 5.7187 C 63.1562 5.7187 64.2187 4.6875 64.2187 3.3750 C 64.2187 2.0625 63.1562 1.0000 61.8437 1.0000 L 3.3437 1.0000 C 2.0312 1.0000 1.0000 2.0625 1.0000 3.3750 C 1.0000 4.6875 2.0312 5.7187 3.3437 5.7187 Z"/>
</svg>