<svg xmlns="http://www.w3.org/2000/svg" viewBox="0 0 28.4756 28.5390"><path d="M14.3965 9.0390L12.7080 10.7528C14.3838 10.8925 15.4756 11.3876 16.3008 12.2128C18.5224 14.4345 18.5097 17.5829 16.3135 19.7792L12.1621 23.9179C9.9531 26.1268 6.8301 26.1395 4.6084 23.9306C2.3867 21.6962 2.3994 18.5731 4.6084 16.3642L7.0967 13.8759C6.7412 13.0761 6.6523 12.1239 6.7920 11.2987L3.0596 15.0185C.0254 18.0653 0 22.3817 3.0723 25.454C6.1572 28.5389 10.4736 28.5136 13.5078 25.4794L17.8496 21.1249C20.8965 18.078 20.9218 13.7616 17.8369 10.6894C17.0371 9.8896 16.0215 9.3183 14.3965 9.039ZM14.0791 19.4999L15.7676 17.786C14.0918 17.6591 13 17.1513 12.1748 16.3261C9.9531 14.1044 9.9658 10.956 12.1621 8.7597L16.3008 4.621C18.5224 2.412 21.6455 2.3993 23.8672 4.621C26.0888 6.8427 26.0634 9.9784 23.8672 12.1747L21.3789 14.663C21.7343 15.4755 21.8105 16.4149 21.6836 17.2401L25.416 13.5204C28.4502 10.4735 28.4755 6.1698 25.4033 3.0849C22.3183 0 18.0019.0253 14.9551 3.0722L10.626 7.414C7.5791 10.4608 7.5537 14.7772 10.6387 17.8495C11.4385 18.6493 12.4541 19.2206 14.0791 19.4999Z" fill="black"/></svg>
