<svg xmlns="http://www.w3.org/2000/svg" viewBox="0 0 44.6562 63.2812" role="img">
  <path fill="#000" d="M 8.0312 62.2812 L 36.6250 62.2812 C 41.2187 62.2812 43.6562 59.7812 43.6562 54.8437 L 43.6562 33.3125 C 43.6562 28.4062 41.2187 25.9062 36.6250 25.9062 L 8.0312 25.9062 C 3.4375 25.9062 1.0000 28.4062 1.0000 33.3125 L 1.0000 54.8437 C 1.0000 59.7812 3.4375 62.2812 8.0312 62.2812 Z M 8.1875 57.5624 C 6.8437 57.5624 6.0625 56.7187 6.0625 55.1874 L 6.0625 32.9687 C 6.0625 31.4375 6.8437 30.6250 8.1875 30.6250 L 36.4687 30.6250 C 37.8437 30.6250 38.5937 31.4375 38.5937 32.9687 L 38.5937 55.1874 C 38.5937 56.7187 37.8437 57.5624 36.4687 57.5624 Z M 6.4687 28.3125 L 11.4375 28.3125 L 11.4375 17.7812 C 11.4375 9.8750 16.4687 5.7187 22.3125 5.7187 C 28.1562 5.7187 33.2500 9.8750 33.2500 17.7812 L 33.2500 28.3125 L 38.1875 28.3125 L 38.1875 18.4375 C 38.1875 6.6875 30.5000 1.0000 22.3125 1.0000 C 14.1562 1.0000 6.4687 6.6875 6.4687 18.4375 Z"/>
</svg>