<?xml version="1.0" encoding="UTF-8"?>
<!--Generator: Apple Native CoreSVG 341-->
<!DOCTYPE svg
PUBLIC "-//W3C//DTD SVG 1.1//EN"
       "http://www.w3.org/Graphics/SVG/1.1/DTD/svg11.dtd">
<svg version="1.1" xmlns="http://www.w3.org/2000/svg" xmlns:xlink="http://www.w3.org/1999/xlink" viewBox="0 0 616.435 622.207">
 <g>
  <rect height="622.207" opacity="0" width="616.435" x="0" y="0"/>
  <path d="M0 252.036C0 390.879 112.993 503.916 252.036 503.916C305.166 503.916 354.165 487.08 394.478 458.627L545.918 610.224C553.692 618.242 564.478 622.163 575.552 622.163C599.585 622.163 616.435 603.823 616.435 580.635C616.435 569.448 612.514 559.395 604.853 551.534L454.321 400.356C485.459 359.18 504.116 307.695 504.116 252.036C504.116 112.993 391.079 0 252.036 0C112.993 0 0 112.993 0 252.036ZM56.7281 252.036C56.7281 144.336 144.336 56.7281 252.036 56.7281C359.78 56.7281 447.144 144.336 447.144 252.036C447.144 359.536 359.78 447.144 252.036 447.144C144.336 447.144 56.7281 359.536 56.7281 252.036Z" fill="black" fill-opacity="0.85"/>
 </g>
</svg>
