<svg xmlns="http://www.w3.org/2000/svg" viewBox="0 0 65.7499 65.7499" role="img">
  <path fill="#000" d="M 6.0312 19.6250 C 13.7500 27.8437 24.6250 32.5937 36.1875 32.5625 C 45.3125 32.5312 53.9687 29.5000 61.0312 23.9375 L 59.2499 20.4375 C 52.8124 25.8125 44.7187 28.7500 36.1875 28.7812 C 25.1250 28.8125 14.7812 24.0000 7.7812 15.7500 Z M 2.6875 37.4687 C 18.9375 51.3437 42.1875 53.9374 60.9374 44.1250 L 60.8437 39.8437 C 42.6250 50.3750 19.3437 47.7500 3.6250 33.2187 Z M 18.1875 58.9374 L 22.6562 59.9687 C 20.5625 54.9374 19.4375 49.6250 19.3437 44.1562 C 18.4687 28.6250 25.1562 13.8125 37.0937 4.0312 L 33.0937 2.4687 C 21.2500 12.9687 14.7187 28.2500 15.5625 44.2187 C 15.6250 49.2187 16.5312 54.1562 18.1875 58.9374 Z M 38.7812 62.0312 L 42.3125 60.4687 C 36.4687 52.2187 33.2812 42.4375 33.2812 32.2187 C 33.2812 22.5312 36.0937 13.2812 41.3750 5.4062 L 37.6875 4.0937 C 32.3437 12.4687 29.5000 22.1875 29.5000 32.2187 C 29.5000 43.0000 32.7500 53.2812 38.7812 62.0312 Z M 57.1874 50.4062 L 59.7187 47.5312 C 49.2187 41.5000 42.6562 30.4687 42.5000 18.2187 C 42.4375 13.8437 43.2187 9.5000 44.7812 5.5000 L 41.1250 4.4687 C 39.4687 8.8437 38.6562 13.4687 38.7187 18.2500 C 38.8750 31.5312 45.9062 43.6562 57.1874 50.4062 Z M 19.3125 32.1875 C 21.9687 32.1875 24.1562 29.9687 24.1562 27.2812 C 24.1562 24.5937 21.9687 22.4062 19.3125 22.4062 C 16.5937 22.4062 14.4062 24.5937 14.4062 27.2812 C 14.4062 29.9687 16.5937 32.1875 19.3125 32.1875 Z M 43.2500 34.7812 C 45.8750 34.7812 48.0312 32.6250 48.0312 29.9375 C 48.0312 27.3125 45.8750 25.1562 43.2500 25.1562 C 40.5625 25.1562 38.4062 27.3125 38.4062 29.9375 C 38.4062 32.6250 40.5625 34.7812 43.2500 34.7812 Z M 33.9375 52.8437 C 36.6250 52.8437 38.7812 50.6875 38.7812 47.9687 C 38.7812 45.2812 36.6250 43.0937 33.9375 43.0937 C 31.2187 43.0937 29.0312 45.2812 29.0312 47.9687 C 29.0312 50.6875 31.2187 52.8437 33.9375 52.8437 Z M 32.8750 64.7499 C 50.4687 64.7499 64.7499 50.4687 64.7499 32.8750 C 64.7499 15.2812 50.4687 1.0000 32.8750 1.0000 C 15.2812 1.0000 1.0000 15.2812 1.0000 32.8750 C 1.0000 50.4687 15.2812 64.7499 32.8750 64.7499 Z M 32.8750 60.4999 C 17.6250 60.4999 5.2500 48.1250 5.2500 32.8750 C 5.2500 17.6250 17.6250 5.2500 32.8750 5.2500 C 48.1250 5.2500 60.4999 17.6250 60.4999 32.8750 C 60.4999 48.1250 48.1250 60.4999 32.8750 60.4999 Z"/>
</svg>