<?xml version="1.0" encoding="UTF-8"?>
<!--Generator: Apple Native CoreSVG 341-->
<!DOCTYPE svg
PUBLIC "-//W3C//DTD SVG 1.1//EN"
       "http://www.w3.org/Graphics/SVG/1.1/DTD/svg11.dtd">
<svg version="1.1" xmlns="http://www.w3.org/2000/svg" xmlns:xlink="http://www.w3.org/1999/xlink" viewBox="0 0 521.211 521.611">
 <g>
  <rect height="521.611" opacity="0" width="521.211" x="0" y="0"/>
  <path d="M291.001 490.737L291.001 30.5173C291.001 13.8866 277.314 0 260.483 0C243.896 0 230.21 13.8866 230.21 30.5173L230.21 490.737C230.21 507.324 243.896 521.211 260.483 521.211C277.314 521.211 291.001 507.324 291.001 490.737ZM30.4734 291.001L490.737 291.001C507.324 291.001 521.211 277.358 521.211 260.727C521.211 243.896 507.324 230.254 490.737 230.254L30.4734 230.254C13.8866 230.254 0 243.896 0 260.727C0 277.358 13.8866 291.001 30.4734 291.001Z" fill="black" fill-opacity="0.85"/>
 </g>
</svg>
