<?xml version="1.0" encoding="UTF-8"?>
<!--Generator: Apple Native CoreSVG 341-->
<!DOCTYPE svg
PUBLIC "-//W3C//DTD SVG 1.1//EN"
       "http://www.w3.org/Graphics/SVG/1.1/DTD/svg11.dtd">
<svg version="1.1" xmlns="http://www.w3.org/2000/svg" xmlns:xlink="http://www.w3.org/1999/xlink" viewBox="-10 -10 577.446 700.044">
 <g>
  <rect height="757.715" opacity="0" width="557.446" x="0" y="0"/>
  <path d="M278.623 680.044C432.593 680.044 557.446 555.19 557.446 400.976C557.446 386.401 545.351 374.307 530.576 374.307C515.957 374.307 503.862 386.401 503.862 400.976C503.862 525.308 402.954 626.216 278.623 626.216C154.336 626.216 53.5836 525.308 53.5836 400.976C53.5836 276.689 154.336 175.937 278.623 175.937C306.675 175.937 333.35 181.025 357.847 190.6C374.443 196.806 394.311 186.972 394.712 166.772C395.112 151.411 384.228 143.467 374.263 140.01C345.249 128.95 312.768 122.598 278.623 122.598C124.653 122.598 0 247.207 0 401.221C0 555.19 124.653 680.044 278.623 680.044ZM365.112 161.899L247.627 278.833C242.529 283.687 240.161 289.849 240.161 297.114C240.161 312.046 251.435 323.764 266.323 323.764C274.145 323.764 280.171 320.883 285.156 316.142L416.757 183.188C423.007 176.538 425.732 169.98 425.732 162.471C425.732 155.249 422.519 148.003 416.757 141.997L285.156 8.15424C280.083 3.0371 274.101 0 266.123 0C251.435 0 240.161 12.2069 240.161 27.1385C240.161 34.2478 242.441 40.8542 247.427 45.7077Z" fill="black" fill-opacity="0.85"/>
 </g>
</svg>
