<svg xmlns="http://www.w3.org/2000/svg" viewBox="0 0 65.0937 70.9374" role="img">
  <path fill="#000" d="M 5.3750 54.9999 L 29.9687 68.9374 C 31.7187 69.9374 33.3750 69.9374 35.1562 68.9374 L 59.7187 54.9999 C 62.5937 53.3749 64.0937 51.7187 64.0937 47.2500 L 64.0937 22.5000 C 64.0937 19.2500 62.9062 17.2187 60.2812 15.7187 L 38.1562 3.1562 C 34.3750 1.0000 30.7187 1.0000 26.9375 3.1562 L 4.8437 15.7187 C 2.1875 17.2187 1.0000 19.2500 1.0000 22.5000 L 1.0000 47.2500 C 1.0000 51.7187 2.5312 53.3749 5.3750 54.9999 Z M 8.1875 50.8750 C 6.3750 49.8750 5.7500 48.8125 5.7500 47.0937 L 5.7500 23.5000 L 30.0937 37.4062 L 30.0937 63.3437 Z M 56.9374 50.8750 L 35.0000 63.3437 L 35.0000 37.4062 L 59.3437 23.5000 L 59.3437 47.0937 C 59.3437 48.8125 58.7187 49.8750 56.9374 50.8750 Z M 32.5625 33.0312 L 8.4375 19.3750 L 18.0937 13.8437 L 42.2187 27.5625 Z M 47.2500 24.7187 L 23.0312 11.0312 L 29.0312 7.6250 C 31.4375 6.2500 33.6562 6.2187 36.0937 7.6250 L 56.6874 19.3750 Z"/>
</svg>