<svg xmlns="http://www.w3.org/2000/svg" viewBox="0 0 75.6874 59.5312" role="img">
  <path fill="#000" d="M 24.8125 54.4999 L 29.7187 54.4999 L 29.7187 5.1250 L 24.8125 5.1250 Z M 14.1875 58.5312 L 62.2812 58.5312 C 70.1562 58.5312 74.6874 53.7812 74.6874 45.3437 L 74.6874 14.2187 C 74.6874 5.7812 70.1562 1.0000 62.2812 1.0000 L 14.1875 1.0000 C 5.7812 1.0000 1.0000 5.7812 1.0000 14.2187 L 1.0000 45.3437 C 1.0000 53.7812 5.7812 58.5312 14.1875 58.5312 Z M 14.2187 53.4999 C 9.0312 53.4999 6.0312 50.5312 6.0312 45.3437 L 6.0312 14.2187 C 6.0312 9.0312 9.0312 6.0312 14.2187 6.0312 L 61.4687 6.0312 C 66.6562 6.0312 69.6562 9.0312 69.6562 14.2187 L 69.6562 45.3437 C 69.6562 50.5312 66.6562 53.4999 61.4687 53.4999 Z M 18.8125 17.6562 C 19.7500 17.6562 20.5937 16.8125 20.5937 15.9062 C 20.5937 14.9687 19.7500 14.1562 18.8125 14.1562 L 12.0937 14.1562 C 11.1562 14.1562 10.3437 14.9687 10.3437 15.9062 C 10.3437 16.8125 11.1562 17.6562 12.0937 17.6562 Z M 18.8125 25.7500 C 19.7500 25.7500 20.5937 24.9062 20.5937 23.9687 C 20.5937 23.0312 19.7500 22.2500 18.8125 22.2500 L 12.0937 22.2500 C 11.1562 22.2500 10.3437 23.0312 10.3437 23.9687 C 10.3437 24.9062 11.1562 25.7500 12.0937 25.7500 Z M 18.8125 33.8125 C 19.7500 33.8125 20.5937 33.0312 20.5937 32.0937 C 20.5937 31.1562 19.7500 30.3437 18.8125 30.3437 L 12.0937 30.3437 C 11.1562 30.3437 10.3437 31.1562 10.3437 32.0937 C 10.3437 33.0312 11.1562 33.8125 12.0937 33.8125 Z"/>
</svg>