<svg xmlns="http://www.w3.org/2000/svg" viewBox="0 0 64.9687 55.2187" role="img">
  <path fill="#000" d="M 3.5000 49.2187 L 61.5624 49.2187 C 62.8437 49.2187 63.9687 48.1250 63.9687 46.7187 C 63.9687 45.3125 62.8437 44.1875 61.5624 44.1875 L 3.5000 44.1875 C 2.0937 44.1875 1.0000 45.3125 1.0000 46.7187 C 1.0000 48.1250 2.0937 49.2187 3.5000 49.2187 Z M 43.6875 54.2187 C 47.8125 54.2187 51.1875 50.8437 51.1875 46.7187 C 51.1875 42.5937 47.8125 39.2187 43.6875 39.2187 C 39.5625 39.2187 36.1562 42.5937 36.1562 46.7187 C 36.1562 50.8437 39.5625 54.2187 43.6875 54.2187 Z M 43.6875 54.2187 C 47.8125 54.2187 51.1875 50.8437 51.1875 46.7187 C 51.1875 42.5937 47.8125 39.2187 43.6875 39.2187 C 39.5625 39.2187 36.1562 42.5937 36.1562 46.7187 C 36.1562 50.8437 39.5625 54.2187 43.6875 54.2187 Z M 43.6875 50.3750 C 41.6250 50.3750 40.0312 48.7500 40.0312 46.7187 C 40.0312 44.6250 41.6250 43.0625 43.6875 43.0625 C 45.7500 43.0625 47.3437 44.6250 47.3437 46.7187 C 47.3437 48.7500 45.7500 50.3750 43.6875 50.3750 Z M 3.5000 30.1250 L 61.5624 30.1250 C 62.8437 30.1250 63.9687 29.0312 63.9687 27.6250 C 63.9687 26.2187 62.8437 25.0937 61.5624 25.0937 L 3.5000 25.0937 C 2.0937 25.0937 1.0000 26.2187 1.0000 27.6250 C 1.0000 29.0312 2.0937 30.1250 3.5000 30.1250 Z M 21.6250 35.1562 C 25.7500 35.1562 29.1250 31.7500 29.1250 27.6250 C 29.1250 23.5000 25.7500 20.1250 21.6250 20.1250 C 17.5000 20.1250 14.1250 23.5000 14.1250 27.6250 C 14.1250 31.7500 17.5000 35.1562 21.6250 35.1562 Z M 21.6250 35.1562 C 25.7500 35.1562 29.1250 31.7500 29.1250 27.6250 C 29.1250 23.5000 25.7500 20.1250 21.6250 20.1250 C 17.5000 20.1250 14.1250 23.5000 14.1250 27.6250 C 14.1250 31.7500 17.5000 35.1562 21.6250 35.1562 Z M 21.6250 31.2812 C 19.5937 31.2812 17.9687 29.6562 17.9687 27.6250 C 17.9687 25.5625 19.5937 23.9687 21.6250 23.9687 C 23.6875 23.9687 25.2812 25.5625 25.2812 27.6250 C 25.2812 29.6562 23.6875 31.2812 21.6250 31.2812 Z M 3.5000 11.0625 L 61.5624 11.0625 C 62.8437 11.0625 63.9687 9.9375 63.9687 8.5312 C 63.9687 7.1250 62.8437 6.0312 61.5624 6.0312 L 3.5000 6.0312 C 2.0937 6.0312 1.0000 7.1250 1.0000 8.5312 C 1.0000 9.9375 2.0937 11.0625 3.5000 11.0625 Z M 43.6875 16.0312 C 47.8125 16.0312 51.1875 12.6562 51.1875 8.5312 C 51.1875 4.4062 47.8125 1.0000 43.6875 1.0000 C 39.5625 1.0000 36.1562 4.4062 36.1562 8.5312 C 36.1562 12.6562 39.5625 16.0312 43.6875 16.0312 Z M 43.6875 16.0312 C 47.8125 16.0312 51.1875 12.6562 51.1875 8.5312 C 51.1875 4.4062 47.8125 1.0000 43.6875 1.0000 C 39.5625 1.0000 36.1562 4.4062 36.1562 8.5312 C 36.1562 12.6562 39.5625 16.0312 43.6875 16.0312 Z M 43.6875 12.1875 C 41.6250 12.1875 40.0312 10.5625 40.0312 8.5000 C 40.0312 6.4375 41.6250 4.8437 43.6875 4.8437 C 45.7500 4.8437 47.3437 6.4375 47.3437 8.5000 C 47.3437 10.5625 45.7500 12.1875 43.6875 12.1875 Z"/>
</svg>