<svg xmlns="http://www.w3.org/2000/svg" viewBox="0 0 31.8271 30.7226"><path d="M27.4599 24.4385C28.4883 23.8418 28.8818 23.372 28.8818 22.6865C28.8818 21.9883 28.4883 21.5185 27.4599 20.9219L17.5322 15.1582C16.9101 14.8027 16.4404 14.6377 15.9072 14.6377C15.3867 14.6377 14.9043 14.8027 14.2949 15.1582L4.3672 20.9219C3.3389 21.5185 2.9453 21.9883 2.9453 22.6865C2.9453 23.372 3.3389 23.8418 4.3672 24.4385L14.2949 30.2021C14.9043 30.5576 15.3867 30.7226 15.9072 30.7226C16.4404 30.7226 16.9101 30.5576 17.5322 30.2021ZM0 16.834C0 18.5097.7998 19.9189 2.8818 21.125L15.2724 28.3232C15.4883 28.4375 15.7168 28.5136 15.9072 28.5136C16.1103 28.5136 16.3389 28.4375 16.5547 28.3232L28.9453 21.125C30.9892 19.9316 31.8271 18.5097 31.8271 16.834C31.8271 15.1582 31.0019 13.749 28.9453 12.543L19.0049 6.7539C17.875 6.1191 16.9101 5.8398 15.9072 5.8398C14.917 5.8398 13.9394 6.1191 12.8223 6.7539L2.8818 12.543C.8125 13.749 0 15.1582 0 16.834ZM4.3672 18.5859L14.2949 24.3623C14.9043 24.7177 15.3867 24.8828 15.9072 24.8828C16.4404 24.8828 16.9101 24.7177 17.5322 24.3623L27.4599 18.5859C28.4883 17.9892 28.8818 17.5322 28.8818 16.834C28.8818 16.1357 28.4883 15.6787 27.4599 15.0693L17.5322 9.3057C16.9101 8.9502 16.4404 8.7851 15.9072 8.7851C15.3867 8.7851 14.9043 8.9502 14.2949 9.3057L4.3672 15.0693C3.3389 15.6787 2.9453 16.1357 2.9453 16.834C2.9453 17.5322 3.3389 17.9892 4.3672 18.5859ZM0 10.9814C0 12.6572.7998 14.0664 2.8818 15.2724L15.2724 22.4707C15.4883 22.5849 15.7168 22.6611 15.9072 22.6611C16.1103 22.6611 16.3389 22.5849 16.5547 22.4707L28.9453 15.2724C30.9892 14.0791 31.8271 12.6572 31.8271 10.9814C31.8271 9.3057 31.0019 7.8965 28.9453 6.6904L19.0049.9141C17.875.2666 16.9101 0 15.9072 0C14.917 0 13.9394.2666 12.8223.9141L2.8818 6.6904C.8125 7.8965 0 9.3057 0 10.9814ZM4.3672 12.4922L14.2949 18.2558C14.9043 18.6113 15.3867 18.7763 15.9072 18.7763C16.4404 18.7763 16.9101 18.6113 17.5322 18.2558L27.4599 12.4922C28.4883 11.8955 28.8818 11.4258 28.8818 10.7275C28.8818 10.042 28.4883 9.5723 27.4599 8.9756L17.5322 3.2119C16.9101 2.8564 16.4404 2.6914 15.9072 2.6914C15.3867 2.6914 14.9043 2.8564 14.2949 3.2119L4.3672 8.9756C3.3389 9.5723 2.9453 10.042 2.9453 10.7275C2.9453 11.4258 3.3389 11.8955 4.3672 12.4922Z" fill="black"/></svg>
