<svg xmlns="http://www.w3.org/2000/svg" viewBox="0 0 57.4687 77.0624" role="img">
  <path fill="#000" d="M 14.0625 76.0624 L 43.3750 76.0624 C 51.7812 76.0624 56.4687 71.4062 56.4687 62.9999 L 56.4687 38.9375 C 56.4687 30.5625 51.7812 25.8750 43.3750 25.8750 L 14.0625 25.8750 C 5.6562 25.8750 1.0000 30.5625 1.0000 38.9375 L 1.0000 62.9999 C 1.0000 71.4062 5.6562 76.0624 14.0625 76.0624 Z M 14.0625 71.0312 C 8.9375 71.0312 6.0312 68.1562 6.0312 62.9999 L 6.0312 38.9375 C 6.0312 33.8125 8.9375 30.9062 14.0625 30.9062 L 43.3750 30.9062 C 48.5312 30.9062 51.4375 33.8125 51.4375 38.9375 L 51.4375 62.9999 C 51.4375 68.1562 48.5312 71.0312 43.3750 71.0312 Z M 37.0625 49.1875 L 37.0625 9.2812 C 37.0625 4.7500 33.2812 1.0000 28.7187 1.0000 C 24.1562 1.0000 20.3750 4.7500 20.3750 9.2812 L 20.3750 49.1875 C 20.3750 53.7187 24.1562 57.4687 28.7187 57.4687 C 33.2812 57.4687 37.0625 53.7187 37.0625 49.1875 Z M 18.1250 20.4687 C 18.7187 20.4687 19.4062 20.2187 19.8437 19.7187 L 24.6875 14.5625 L 28.7187 10.2812 L 32.7812 14.5625 L 37.5937 19.7187 C 38.0312 20.2187 38.6875 20.4687 39.2812 20.4687 C 40.5937 20.4687 41.5625 19.5625 41.5625 18.2812 C 41.5625 17.5937 41.3125 17.0937 40.8437 16.6250 L 30.5312 6.6875 C 29.9062 6.0625 29.3750 5.8750 28.7187 5.8750 C 28.0937 5.8750 27.5625 6.0625 26.9062 6.6875 L 16.6250 16.6250 C 16.1562 17.0937 15.8750 17.5937 15.8750 18.2812 C 15.8750 19.5625 16.8125 20.4687 18.1250 20.4687 Z M 28.7187 51.5937 C 30.0625 51.5937 31.2187 50.5000 31.2187 49.1875 L 31.2187 17.4062 L 30.8437 8.9687 C 30.7812 7.8437 29.8750 6.8750 28.7187 6.8750 C 27.5937 6.8750 26.6875 7.8437 26.6250 8.9687 L 26.2500 17.4062 L 26.2500 49.1875 C 26.2500 50.5000 27.3750 51.5937 28.7187 51.5937 Z"/>
</svg>