<?xml version="1.0" encoding="UTF-8"?>
<!--Generator: Apple Native CoreSVG 341-->
<!DOCTYPE svg PUBLIC "-//W3C//DTD SVG 1.1//EN" "http://www.w3.org/Graphics/SVG/1.1/DTD/svg11.dtd">
<svg version="1.1" xmlns="http://www.w3.org/2000/svg" xmlns:xlink="http://www.w3.org/1999/xlink" viewBox="0 0 799.072 840.088">
 <g>
  <rect height="840.088" opacity="0" width="799.072" x="0" y="0"/>
  <path d="M716.309 572.754C716.309 588.623 707.031 598.877 684.814 611.816L435.059 756.592C421.631 764.404 411.133 768.311 399.414 768.311C387.939 768.311 377.441 764.404 364.014 756.592L114.258 611.816C92.041 598.877 82.7637 588.623 82.7637 572.754C82.7637 563.265 86.1855 555.756 93.8768 548.371L385.01 717.041C389.893 719.727 395.02 721.436 399.414 721.436C404.053 721.436 409.18 719.727 414.062 717.041L705.196 548.371C712.887 555.756 716.309 563.265 716.309 572.754Z" fill="black" fill-opacity="0.85"/>
  <path d="M716.309 425.537C716.309 441.162 707.031 451.416 684.814 464.6L435.059 609.375C421.631 617.188 411.133 621.094 399.414 621.094C387.939 621.094 377.441 617.188 364.014 609.375L114.258 464.6C92.041 451.416 82.7637 441.162 82.7637 425.537C82.7637 416.048 86.1855 408.539 93.8768 401.154L385.01 569.824C389.893 572.51 395.02 574.219 399.414 574.219C404.053 574.219 409.18 572.51 414.062 569.824L705.196 401.154C712.887 408.539 716.309 416.048 716.309 425.537Z" fill="black" fill-opacity="0.85"/>
  <path d="M114.258 311.279L364.014 456.055C377.441 463.867 387.939 467.773 399.414 467.773C411.133 467.773 421.631 463.867 435.059 456.055L684.814 311.279C707.031 298.34 716.309 288.086 716.309 272.217C716.309 256.592 707.031 246.338 684.814 233.154L435.059 88.623C421.631 80.5664 411.133 76.9043 399.414 76.9043C387.939 76.9043 377.441 80.5664 364.014 88.623L114.258 233.154C92.041 246.338 82.7637 256.592 82.7637 272.217C82.7637 288.086 92.041 298.34 114.258 311.279Z" fill="black" fill-opacity="0.85"/>
 </g>
</svg>
