<svg xmlns="http://www.w3.org/2000/svg" viewBox="0 0 62.4999 71.5937" role="img">
  <path fill="#000" d="M 22.0000 60.5312 C 23.1875 60.5312 23.9687 59.7812 23.9375 58.6874 L 22.9687 25.2500 C 22.9375 24.1562 22.1562 23.4375 21.0312 23.4375 C 19.8437 23.4375 19.0625 24.1875 19.0937 25.2812 L 20.0312 58.6874 C 20.0625 59.8124 20.8437 60.5312 22.0000 60.5312 Z M 31.2500 60.5312 C 32.4375 60.5312 33.2812 59.7812 33.2812 58.6874 L 33.2812 25.2812 C 33.2812 24.1875 32.4375 23.4375 31.2500 23.4375 C 30.0625 23.4375 29.2500 24.1875 29.2500 25.2812 L 29.2500 58.6874 C 29.2500 59.7812 30.0625 60.5312 31.2500 60.5312 Z M 40.5312 60.5312 C 41.6562 60.5312 42.4375 59.8124 42.4687 58.6874 L 43.4062 25.2812 C 43.4375 24.1875 42.6562 23.4375 41.4687 23.4375 C 40.3437 23.4375 39.5625 24.1562 39.5312 25.2812 L 38.5937 58.6874 C 38.5625 59.7812 39.3437 60.5312 40.5312 60.5312 Z M 17.5312 15.2812 L 22.5000 15.2812 L 22.5000 8.5937 C 22.5000 6.8125 23.7500 5.6562 25.6250 5.6562 L 36.8125 5.6562 C 38.6875 5.6562 39.9375 6.8125 39.9375 8.5937 L 39.9375 15.2812 L 44.9062 15.2812 L 44.9062 8.2812 C 44.9062 3.7500 41.9687 1.0000 37.1562 1.0000 L 25.2812 1.0000 C 20.4687 1.0000 17.5312 3.7500 17.5312 8.2812 Z M 3.3437 17.7812 L 59.1874 17.7812 C 60.4687 17.7812 61.4999 16.6875 61.4999 15.4062 C 61.4999 14.1250 60.4687 13.0625 59.1874 13.0625 L 3.3437 13.0625 C 2.0937 13.0625 1.0000 14.1250 1.0000 15.4062 C 1.0000 16.7187 2.0937 17.7812 3.3437 17.7812 Z M 16.9375 70.5937 L 45.5937 70.5937 C 50.0625 70.5937 53.0624 67.6874 53.2812 63.2187 L 55.4687 17.1875 L 50.4375 17.1875 L 48.3437 62.6874 C 48.2812 64.5624 46.9375 65.8749 45.0937 65.8749 L 17.3750 65.8749 C 15.5937 65.8749 14.2500 64.5312 14.1562 62.6874 L 11.9375 17.1875 L 7.0312 17.1875 L 9.2500 63.2499 C 9.4687 67.7187 12.4062 70.5937 16.9375 70.5937 Z"/>
</svg>