<svg xmlns="http://www.w3.org/2000/svg" viewBox="0 0 52.1250 52.1250" role="img">
  <path fill="#000" d="M 46.0625 2.1250 L 2.0937 46.0937 C 1.0312 47.1562 1.0000 48.9687 2.0937 50.0312 C 3.1875 51.0937 5.0000 51.0937 6.0625 50.0312 L 50.0312 6.0625 C 51.0937 5.0000 51.1250 3.1875 50.0312 2.1250 C 48.9375 1.0312 47.1562 1.0000 46.0625 2.1250 Z M 50.0312 46.0937 L 6.0625 2.1250 C 5.0000 1.0312 3.1562 1.0000 2.0937 2.1250 C 1.0312 3.2187 1.0312 5.0000 2.0937 6.0625 L 46.0625 50.0312 C 47.1250 51.0937 48.9687 51.1250 50.0312 50.0312 C 51.0937 48.9375 51.0937 47.1562 50.0312 46.0937 Z"/>
</svg>